<?xml version="1.0" encoding="UTF-8" standalone="no"?><!DOCTYPE svg PUBLIC "-//W3C//DTD SVG 1.1//EN" "http://www.w3.org/Graphics/SVG/1.1/DTD/svg11.dtd"><svg width="100%" height="100%" viewBox="0 0 200 230" version="1.1" xmlns="http://www.w3.org/2000/svg" xmlns:xlink="http://www.w3.org/1999/xlink" xml:space="preserve" xmlns:serif="http://www.serif.com/" style="fill-rule:evenodd;clip-rule:evenodd;stroke-linejoin:round;stroke-miterlimit:2;"><path d="M169.552,24.565l-69.546,-21.267l-69.558,21.267c-0,-0 -2.817,36.145 -27.4,41.129l-0,49.366c-0,0 23.012,91.496 96.958,111.225c73.938,-19.729 96.946,-111.225 96.946,-111.225l0,-49.366c-24.587,-4.984 -27.4,-41.129 -27.4,-41.129" style="fill:#fff;fill-rule:nonzero;"/><path d="M197.542,62.635c-22.009,-4.458 -24.921,-37.97 -24.946,-38.308l-0.175,-2.137l-72.417,-22.146l-72.425,22.146l-0.175,2.137c-0.025,0.338 -2.942,33.85 -24.946,38.308l-2.462,0.496l-0,51.942l0.091,0.783c0.238,0.934 24.33,93.513 99.146,113.475l0.771,0.209l0.763,-0.209c74.816,-19.962 98.908,-112.541 99.141,-113.475l0.096,-52.725l-2.462,-0.496Zm-3.642,52.017c-1.696,6.271 -25.521,89.588 -93.896,108.408c-68.383,-18.82 -92.208,-102.137 -93.904,-108.408l-0,-46.475c21.108,-6.162 26.125,-33.229 27.158,-41.187l66.746,-20.409l66.733,20.409c1.03,7.958 6.05,35.025 27.163,41.187l-0,46.475Zm-33.463,-80.867l-0.2,-1l-55.687,-17.033c-0.2,-2.425 -2.125,-4.35 -4.542,-4.35c-2.425,0 -4.35,1.921 -4.55,4.35l-55.696,17.038l-0.2,1c-1.616,8.137 -6.875,27.12 -21.687,36.975c-0.792,-0.646 -1.746,-1.092 -2.838,-1.092c-2.554,-0 -4.62,2.125 -4.62,4.746c-0,2.016 1.229,3.716 2.954,4.4l-0,34.546l0.066,0.483c2.38,8.246 24.484,79.525 81.988,99.937c0.137,2.505 2.108,4.496 4.583,4.496c2.496,0 4.509,-2.05 4.588,-4.596c23.529,-8.329 43.821,-25.72 60.304,-51.987c13.5,-21.525 19.996,-42.063 21.658,-47.842l0.063,-35.033c1.729,-0.683 2.966,-2.383 2.966,-4.404c0,-2.621 -2.07,-4.746 -4.625,-4.746c-1.091,-0 -2.054,0.446 -2.841,1.092c-14.809,-9.855 -20.071,-28.838 -21.684,-36.98m-56.92,176.755c-0.855,-1.042 -2.08,-1.75 -3.509,-1.75c-1.437,-0 -2.666,0.708 -3.512,1.754c-55.409,-19.684 -77.142,-88.334 -79.796,-97.429l-0,-34.292c1.733,-0.688 2.962,-2.383 2.962,-4.404c0,-0.238 -0.1,-0.446 -0.137,-0.675c15.396,-10.138 21.158,-29.171 23.092,-38.267l53.8,-16.446c0.854,1.109 2.108,1.863 3.591,1.863c1.475,-0 2.734,-0.754 3.579,-1.863l53.792,16.446c1.933,9.092 7.7,28.129 23.092,38.271c-0.034,0.233 -0.134,0.433 -0.134,0.671c0,2.021 1.23,3.716 2.963,4.4l-0,34.3c-2.654,9.096 -24.392,77.741 -79.783,97.421" style="fill:#030404;fill-rule:nonzero;"/></svg>