<?xml version="1.0" encoding="UTF-8" standalone="no"?><!DOCTYPE svg PUBLIC "-//W3C//DTD SVG 1.1//EN" "http://www.w3.org/Graphics/SVG/1.1/DTD/svg11.dtd"><svg width="100%" height="100%" viewBox="0 0 330 206" version="1.1" xmlns="http://www.w3.org/2000/svg" xmlns:xlink="http://www.w3.org/1999/xlink" xml:space="preserve" xmlns:serif="http://www.serif.com/" style="fill-rule:evenodd;clip-rule:evenodd;stroke-linejoin:round;stroke-miterlimit:2;"><g><path d="M325.627,21.338l-0,162.783l-17.5,17.5l-286.988,0l-17.541,-17.5l-0,-162.783l17.541,-17.542l286.988,0l17.5,17.542Z" style="fill:#fff;fill-rule:nonzero;"/><path d="M308.331,-0.042l-287.5,0l-20.883,20.888l-0,163.729l20.883,20.883l287.5,0l20.888,-20.883l-0,-163.729l-20.888,-20.888Zm15.159,23.263l-0,16.146c-1.7,-5.092 -4.113,-10.521 -7.496,-15.65l-0,-0.296l-0.192,-0c-4.812,-7.196 -11.592,-13.725 -21.125,-17.733l11.279,-0l17.534,17.533Zm-36.884,176.508l-244.154,0c-10.887,-2.633 -19.608,-8.629 -26.154,-17.825l-0,-158.291c5.692,-7.98 14.042,-14.913 26.258,-17.925l244.154,-0c10.892,2.633 19.609,8.629 26.159,17.825l-0,158.291c-5.692,7.979 -14.042,14.913 -26.263,17.925m-280.929,-150.9c1.263,-5.904 3.513,-13.254 7.496,-20.304l-0,148.429c-0.696,-1.237 -1.433,-2.412 -2.063,-3.742c-2.741,-5.77 -4.408,-11.566 -5.433,-16.416l0,-107.967Zm310.317,-20.366c0.696,1.237 1.433,2.412 2.062,3.741c2.738,5.771 4.409,11.567 5.434,16.417l-0,107.962c-1.263,5.909 -3.513,13.259 -7.496,20.309l-0,-148.43Zm-292.784,-22.774l11.28,-0c-9.534,4.008 -16.313,10.537 -21.125,17.733l-0.192,-0l-0,0.296c-3.388,5.129 -5.8,10.558 -7.496,15.65l0,-16.146l17.533,-17.533Zm-17.533,176.512l0,-16.15c1.696,5.092 4.108,10.521 7.496,15.65l-0,0.296l0.192,-0c4.812,7.196 11.591,13.725 21.125,17.733l-11.28,0l-17.533,-17.529Zm300.279,17.529l-11.279,0c9.533,-4.008 16.313,-10.537 21.125,-17.733l0.192,-0l-0,-0.296c3.383,-5.129 5.796,-10.558 7.496,-15.65l-0,16.15l-17.534,17.529Z" style="fill:#030404;fill-rule:nonzero;"/></g></svg>