<?xml version="1.0" encoding="UTF-8" standalone="no"?><!DOCTYPE svg PUBLIC "-//W3C//DTD SVG 1.1//EN" "http://www.w3.org/Graphics/SVG/1.1/DTD/svg11.dtd"><svg width="100%" height="100%" viewBox="0 0 747 113" version="1.1" xmlns="http://www.w3.org/2000/svg" xmlns:xlink="http://www.w3.org/1999/xlink" xml:space="preserve" xmlns:serif="http://www.serif.com/" style="fill-rule:evenodd;clip-rule:evenodd;stroke-linejoin:round;stroke-miterlimit:2;"><path d="M29.758,0.708c-18.633,12.5 -29.758,33.338 -29.758,55.738c-0,22.4 11.125,43.237 29.767,55.737l1.05,0.709l72.529,-0l1.05,-0.709c3.916,-2.625 7.479,-5.641 10.691,-8.937l613.101,-0l0.833,-1.4c2.392,-4.017 9.937,-15.075 16.033,-17.938l1.646,-0.775l-0.008,-53.375l-1.642,-0.775c-6.096,-2.862 -13.642,-13.925 -16.037,-17.941l-0.834,-1.396l-613.083,-0c-3.221,-3.296 -6.779,-6.313 -10.696,-8.938l-1.05,-0.708l-72.537,0l-1.055,0.708Zm-21.425,55.738c0,-19.2 9.338,-37.092 25.038,-48.113l33.65,0c15.483,6.842 36.446,10.684 46.729,12.596c7.688,10.084 12.079,22.463 12.079,35.504l0,0.025c0,13.042 -4.396,25.417 -12.083,35.505c-10.283,1.912 -31.246,5.754 -46.725,12.595l-33.646,0c-15.7,-11.02 -25.042,-28.912 -25.042,-48.112m690.242,-41.071c10.004,3.717 36.258,14.817 42.388,30.767l0.008,20.596c-6.129,15.95 -32.396,27.062 -42.396,30.779l-545.104,-0c-2.6,-2.325 -8.229,-5.946 -18.704,-6.9c3.021,-5.109 9.7,-18.213 9.7,-34.171c-0,-15.958 -6.679,-29.063 -9.7,-34.171c10.475,-0.954 16.104,-4.575 18.704,-6.9l545.104,0Zm-567.354,7.104c2.058,3.263 10.121,17.159 10.121,33.967c-0,16.808 -8.063,30.704 -10.121,33.967c-1.979,-0.055 -4.108,-0.017 -6.396,0.133c6.017,-10.183 9.338,-21.9 9.338,-34.1l-0,-0.013c-0,-12.191 -3.321,-23.908 -9.334,-34.087c2.284,0.15 4.413,0.187 6.392,0.133m-30.433,82.079l-17.4,0c10.491,-4.266 19.504,-7.041 27.204,-8.725c-2.917,3.221 -6.171,6.175 -9.804,8.725m21.904,-10.637c12.883,-1.167 20.729,1.229 25.154,3.596l-27.754,-0c0.904,-1.171 1.766,-2.371 2.6,-3.596m602.275,3.596l-17.909,-0c10.796,-4.642 26.367,-12.863 33.913,-24.092l-0,6.188c-6.913,4.237 -13.65,14.2 -16.004,17.904m15.996,-64.242l-0,6.183c-7.546,-11.229 -23.109,-19.441 -33.905,-24.083l17.9,0c2.355,3.704 9.096,13.667 16.005,17.9m-593.117,-17.9c-4.425,2.367 -12.271,4.763 -25.154,3.596c-0.829,-1.225 -1.692,-2.425 -2.596,-3.596l27.75,0Zm-37.25,1.683c-7.704,-1.683 -16.713,-4.458 -27.208,-8.725l17.404,0c3.637,2.55 6.887,5.505 9.804,8.725" style="fill:#030404;fill-rule:nonzero;"/></svg>