<?xml version="1.0" encoding="UTF-8" standalone="no"?><!DOCTYPE svg PUBLIC "-//W3C//DTD SVG 1.1//EN" "http://www.w3.org/Graphics/SVG/1.1/DTD/svg11.dtd"><svg width="100%" height="100%" viewBox="0 0 479 1119" version="1.1" xmlns="http://www.w3.org/2000/svg" xmlns:xlink="http://www.w3.org/1999/xlink" xml:space="preserve" xmlns:serif="http://www.serif.com/" style="fill-rule:evenodd;clip-rule:evenodd;stroke-linejoin:round;stroke-miterlimit:2;"><path d="M468.99,950.431l-0.009,-782.025c1.317,-21.379 4.492,-64.704 9.404,-80.646l0.355,-1.154l-1.025,-0.633c-0.071,-0.042 -3.15,-1.992 -6.271,-5.263c1.012,-5.762 2.316,-11.204 3.983,-16.012l0.204,-0.579l-4.225,-47.092l-1.829,-0.567c-4.296,-1.333 -16.537,-6.687 -16.537,-13.6l-0,-2.862l-427.33,-0l0,2.862c0,6.921 -11.937,12.163 -16.533,13.6l-1.833,0.571l-4.225,47.088l0.204,0.579c1.667,4.8 2.962,10.225 3.975,15.975c-3.108,3.3 -6.192,5.258 -6.263,5.3l-1.025,0.637l0.355,1.15c4.904,15.921 8.079,59.146 9.395,80.555l0.009,782.033c-1.317,21.379 -4.492,64.704 -9.404,80.642l-0.355,1.154l1.025,0.637c0.071,0.038 3.15,1.984 6.271,5.259c-1.012,5.762 -2.312,11.204 -3.983,16.012l-0.204,0.583l4.225,47.088l1.833,0.567c4.596,1.437 16.533,6.683 16.533,13.6l0,2.862l427.33,0l-0,-2.862c-0,-6.917 11.937,-12.163 16.537,-13.6l1.829,-0.567l4.225,-47.088l-0.204,-0.583c-1.662,-4.796 -2.962,-10.225 -3.975,-15.975c3.108,-3.3 6.192,-5.258 6.263,-5.296l1.025,-0.641l-0.355,-1.15c-4.904,-15.917 -8.079,-59.146 -9.395,-80.559m-6.53,106.017c0.021,0.054 0.759,1.796 1.73,4.383c0.429,3.875 0.762,11.929 -2.267,20.792c-5.021,14.683 -17.3,25.425 -35.579,31.4l-374.067,-0c-39.262,-12.775 -38.833,-43.046 -37.754,-52.088c1.008,-2.72 1.804,-4.604 1.854,-4.741c1.513,-6.446 -0.592,-12.021 -3.567,-16.35c5.755,-31.542 2.825,-71.713 2.68,-73.525l-0.009,-813.671c0.154,-1.996 3.088,-42.242 -2.683,-73.796c2.962,-4.367 5.046,-10 3.496,-16.55c-0.021,-0.054 -0.763,-1.8 -1.734,-4.383c-0.429,-3.871 -0.762,-11.925 2.267,-20.792c5.025,-14.683 17.3,-25.425 35.583,-31.4l374.063,0c39.262,12.775 38.833,43.046 37.754,52.088c-1.008,2.72 -1.804,4.604 -1.854,4.745c-1.513,6.446 0.592,12.017 3.571,16.346c-5.759,31.546 -2.829,71.713 -2.684,73.525l0.009,813.675c-0.154,1.992 -3.088,42.238 2.683,73.796c-2.958,4.367 -5.042,10 -3.492,16.546m12.609,-968.483c-2.913,10.295 -5.179,29.429 -6.804,47.65c-0.305,-13.634 -0.1,-33.48 2.558,-51.1c1.717,1.595 3.279,2.77 4.246,3.45m-9.738,-24.434c0.146,-0.341 1.934,-4.541 3.617,-9.741l0.862,9.62c-1.154,3.417 -2.125,7.113 -2.962,10.971c-1.604,-3.175 -2.45,-6.854 -1.517,-10.85m0.709,-42.229l2.112,23.575c-0.425,2.029 -0.996,4.146 -1.621,6.179c-0.133,-4.108 -0.787,-9.187 -2.641,-14.6c-3.43,-10.033 -11.734,-22.746 -31.392,-30.729l15.154,0c2.133,8.771 13.65,13.838 18.388,15.575m-434.942,-15.575l15.133,0c-28.341,11.504 -33.516,33.083 -33.941,45.55c-0.65,-2.1 -1.25,-4.296 -1.692,-6.4l2.112,-23.575c4.738,-1.737 16.259,-6.804 18.388,-15.575m-22.158,57.683l0.862,-9.62c1.667,5.15 3.425,9.27 3.533,9.487c0.95,4.054 0.13,7.779 -1.458,10.988c-0.829,-3.817 -1.796,-7.475 -2.937,-10.855m-1.017,21.092c2.658,17.596 2.867,37.429 2.562,51.104c-1.629,-18.216 -3.891,-37.346 -6.804,-47.641c0.971,-0.68 2.534,-1.859 4.242,-3.463m-4.242,946.283c2.913,-10.295 5.179,-29.425 6.804,-47.645c0.305,13.629 0.1,33.479 -2.558,51.095c-1.712,-1.595 -3.275,-2.775 -4.246,-3.45m9.738,24.434c-0.146,0.346 -1.934,4.541 -3.617,9.741l-0.862,-9.616c1.154,-3.417 2.129,-7.109 2.962,-10.967c1.608,3.175 2.45,6.85 1.517,10.842m-0.709,42.229l-2.112,-23.571c0.425,-2.025 1,-4.142 1.621,-6.179c0.133,4.112 0.787,9.183 2.641,14.596c3.43,10.041 11.734,22.746 31.392,30.729l-15.154,-0c-2.129,-8.771 -13.65,-13.838 -18.388,-15.575m434.942,15.575l-15.133,-0c28.341,-11.5 33.516,-33.083 33.946,-45.546c0.645,2.1 1.245,4.292 1.687,6.396l-2.112,23.575c-4.738,1.737 -16.255,6.804 -18.388,15.575m22.158,-57.679l-0.862,9.616c-1.667,-5.154 -3.425,-9.262 -3.529,-9.483c-0.954,-4.058 -0.134,-7.779 1.454,-10.992c0.829,3.817 1.796,7.475 2.937,10.859m1.017,-21.096c-2.658,-17.592 -2.867,-37.425 -2.562,-51.1c1.629,18.217 3.891,37.342 6.804,47.637c-0.967,0.68 -2.529,1.859 -4.242,3.463" style="fill:#030404;fill-rule:nonzero;"/></svg>