<?xml version="1.0" encoding="UTF-8" standalone="no"?><!DOCTYPE svg PUBLIC "-//W3C//DTD SVG 1.1//EN" "http://www.w3.org/Graphics/SVG/1.1/DTD/svg11.dtd"><svg width="100%" height="100%" viewBox="0 0 688 208" version="1.1" xmlns="http://www.w3.org/2000/svg" xmlns:xlink="http://www.w3.org/1999/xlink" xml:space="preserve" xmlns:serif="http://www.serif.com/" style="fill-rule:evenodd;clip-rule:evenodd;stroke-linejoin:round;stroke-miterlimit:2;"><g><path d="M20.546,205.795l645.984,0c-0,-10.575 18.554,-16.333 18.554,-16.333l-0,-187.337l-10.746,-0c-0,-0 -8.796,16.458 -37.108,-0l-587.375,-0c-28.313,16.458 -37.109,-0 -37.109,-0l-10.746,-0l0,187.337c0,0 18.546,5.758 18.546,16.333" style="fill:#fff;fill-rule:nonzero;"/><path d="M1.381,191.452c4.754,1.475 17.084,6.925 17.084,14.342l-0,2.083l650.15,0l-0,-2.083c-0,-7.396 12.337,-12.863 17.087,-14.342l1.467,-0.454l-0,-190.958l-14.063,0.016l-0.6,1.071c-0.121,0.233 -2.925,5.021 -10.35,6.017c-0.704,-0.929 -1.766,-1.575 -3.025,-1.575c-1.216,-0 -2.254,0.6 -2.962,1.479c-5.279,-0.675 -11.259,-2.867 -17.896,-6.725l-0.483,-0.283l-588.496,-0l-0.484,0.283c-6.637,3.858 -12.616,6.05 -17.895,6.725c-0.705,-0.879 -1.746,-1.479 -2.959,-1.479c-1.258,-0 -2.325,0.646 -3.029,1.575c-7.425,-0.996 -10.225,-5.784 -10.342,-6l-0.591,-1.104l-14.079,-0l-0,190.958l1.466,0.454Zm6.738,-21.371c-2.221,-3.879 -3.588,-6.787 -4.038,-7.766l0,-106.888c2.684,19.213 4.038,36.567 4.038,51.771l-0,62.883Zm14.312,33.629c-1.708,-8.912 -14.025,-14.154 -18.35,-15.733l0,-16.462c5.279,9.458 15.621,24.85 30.2,32.195l-11.85,0Zm642.213,0l-11.838,0c14.575,-7.345 24.917,-22.737 30.196,-32.195l0,16.462c-4.321,1.579 -16.646,6.821 -18.358,15.733m18.358,-41.395c-0.45,0.983 -1.817,3.891 -4.037,7.775l-0,-62.892c-0,-15.204 1.354,-32.558 4.037,-51.771l0,106.888Zm-671.375,-158.109c1.496,2.042 5.475,6.217 13.054,7.121c0.671,1.142 1.854,1.946 3.275,1.946c1.475,-0 2.713,-0.858 3.363,-2.075c5.741,-0.717 12.125,-3 19.096,-6.992l586.258,0c6.971,3.992 13.35,6.275 19.096,6.992c0.646,1.217 1.887,2.075 3.362,2.075c1.417,-0 2.604,-0.804 3.271,-1.946c7.579,-0.904 11.558,-5.079 13.054,-7.121l7.546,0l0,37.484c-4.05,24.7 -6.121,46.733 -6.121,65.508l0,66.392c-7.666,12.362 -21.971,30.12 -40.887,30.12l-584.9,0c-18.904,0 -33.221,-17.77 -40.892,-30.133l0,-66.379c0,-18.775 -2.071,-40.808 -6.121,-65.508l0,-37.484l7.546,0Z" style="fill:#030404;fill-rule:nonzero;"/></g></svg>