<?xml version="1.0" encoding="UTF-8" standalone="no"?><!DOCTYPE svg PUBLIC "-//W3C//DTD SVG 1.1//EN" "http://www.w3.org/Graphics/SVG/1.1/DTD/svg11.dtd"><svg width="100%" height="100%" viewBox="0 0 688 258" version="1.1" xmlns="http://www.w3.org/2000/svg" xmlns:xlink="http://www.w3.org/1999/xlink" xml:space="preserve" xmlns:serif="http://www.serif.com/" style="fill-rule:evenodd;clip-rule:evenodd;stroke-linejoin:round;stroke-miterlimit:2;"><g><path d="M666.537,2.005l-645.983,-0c-0,10.575 -18.554,16.333 -18.554,16.333l-0,237.154l10.745,0c0,0 8.796,-16.458 37.109,0l587.375,0c28.312,-16.458 37.108,0 37.108,0l10.746,0l-0,-237.154c-0,-0 -18.546,-5.758 -18.546,-16.333" style="fill:#fff;fill-rule:nonzero;"/><path d="M685.702,16.348c-4.754,-1.475 -17.083,-6.925 -17.083,-14.342l-0,-2.083l-650.15,-0l-0,2.083c-0,7.396 -12.338,12.863 -17.088,14.342l-1.466,0.454l-0,240.775l14.062,-0.017l0.6,-1.07c0.121,-0.234 2.925,-5.021 10.35,-6.017c0.704,0.929 1.767,1.575 3.025,1.575c1.217,-0 2.254,-0.6 2.963,-1.479c5.279,0.675 11.258,2.866 17.895,6.725l0.484,0.283l588.496,0l0.483,-0.283c6.637,-3.859 12.617,-6.05 17.896,-6.725c0.704,0.879 1.746,1.479 2.958,1.479c1.258,-0 2.325,-0.646 3.029,-1.575c7.425,0.996 10.225,5.783 10.342,6l0.592,1.104l14.079,0l-0,-240.775l-1.467,-0.454Zm-6.737,21.371c2.22,3.879 3.587,6.787 4.037,7.766l0,156.705c-2.683,-19.213 -4.037,-36.567 -4.037,-51.771l-0,-112.7Zm-14.313,-33.629c1.708,8.912 14.025,14.154 18.35,15.733l0,16.462c-5.279,-9.458 -15.621,-24.85 -30.2,-32.195l11.85,-0Zm-642.212,-0l11.837,-0c-14.575,7.345 -24.917,22.737 -30.196,32.195l0,-16.462c4.321,-1.579 16.646,-6.821 18.359,-15.733m-18.359,41.395c0.45,-0.983 1.817,-3.891 4.038,-7.775l-0,112.709c-0,15.204 -1.354,32.558 -4.038,51.771l0,-156.705Zm671.375,207.925c-1.496,-2.037 -5.475,-6.216 -13.054,-7.12c-0.671,-1.142 -1.854,-1.946 -3.275,-1.946c-1.475,-0 -2.712,0.858 -3.362,2.075c-5.742,0.716 -12.125,3 -19.096,6.991l-586.259,0c-6.97,-3.991 -13.35,-6.275 -19.095,-6.991c-0.646,-1.217 -1.888,-2.075 -3.363,-2.075c-1.417,-0 -2.604,0.804 -3.271,1.946c-7.579,0.904 -11.558,5.083 -13.054,7.12l-7.546,0l0,-37.483c4.05,-24.7 6.121,-46.733 6.121,-65.508l0,-116.209c7.667,-12.362 21.971,-30.12 40.888,-30.12l584.9,-0c18.904,-0 33.22,17.77 40.891,30.133l0,116.196c0,18.775 2.071,40.808 6.121,65.508l0,37.483l-7.546,0Z" style="fill:#030404;fill-rule:nonzero;"/></g></svg>