<?xml version="1.0" encoding="UTF-8" standalone="no"?><!DOCTYPE svg PUBLIC "-//W3C//DTD SVG 1.1//EN" "http://www.w3.org/Graphics/SVG/1.1/DTD/svg11.dtd"><svg width="100%" height="100%" viewBox="0 0 218 206" version="1.1" xmlns="http://www.w3.org/2000/svg" xmlns:xlink="http://www.w3.org/1999/xlink" xml:space="preserve" xmlns:serif="http://www.serif.com/" style="fill-rule:evenodd;clip-rule:evenodd;stroke-linejoin:round;stroke-miterlimit:2;"><g><path d="M214.948,20.921l0,162.783l-17.5,17.5l-176.158,0l-17.542,-17.5l0,-162.783l17.542,-17.542l176.158,0l17.5,17.542Z" style="fill:#fff;fill-rule:nonzero;"/><path d="M196.696,0.046l-175.896,-0l-20.883,20.887l-0,163.554l20.883,20.884l175.896,-0l20.887,-20.884l0,-163.554l-20.887,-20.887Zm15.158,23.262l0,16.146c-1.7,-5.092 -4.112,-10.521 -7.496,-15.65l0,-0.296l-0.191,0c-4.813,-7.196 -11.592,-13.725 -21.125,-17.733l11.279,-0l17.533,17.533Zm-36.883,176.334l-132.55,-0c-10.892,-2.634 -19.608,-8.634 -26.158,-17.83l-0,-158.112c5.695,-7.979 14.041,-14.913 26.262,-17.925l132.55,-0c10.892,2.633 19.608,8.629 26.158,17.825l0,158.117c-5.691,7.979 -14.041,14.912 -26.262,17.925m-169.325,-150.725c1.258,-5.905 3.508,-13.255 7.492,-20.305l-0,148.255c-0.696,-1.238 -1.43,-2.413 -2.063,-3.746c-2.737,-5.767 -4.404,-11.563 -5.429,-16.413l-0,-107.791Zm198.712,-20.367c0.696,1.237 1.434,2.412 2.063,3.742c2.737,5.77 4.408,11.566 5.433,16.416l0,107.788c-1.262,5.908 -3.512,13.258 -7.496,20.304l0,-148.25Zm-181.179,-22.775l11.279,-0c-9.537,4.008 -16.312,10.537 -21.129,17.733l-0.191,0l-0,0.296c-3.384,5.129 -5.796,10.558 -7.492,15.65l-0,-16.146l17.533,-17.533Zm-17.533,176.337l-0,-16.15c1.696,5.088 4.108,10.521 7.492,15.646l-0,0.3l0.191,0c4.817,7.192 11.592,13.725 21.129,17.734l-11.279,-0l-17.533,-17.53Zm188.675,17.53l-11.279,-0c9.533,-4.009 16.312,-10.542 21.125,-17.734l0.191,0l0,-0.3c3.384,-5.125 5.796,-10.558 7.496,-15.646l0,16.15l-17.533,17.53Z" style="fill:#030404;fill-rule:nonzero;"/></g></svg>