<?xml version="1.0" encoding="UTF-8" standalone="no"?><!DOCTYPE svg PUBLIC "-//W3C//DTD SVG 1.1//EN" "http://www.w3.org/Graphics/SVG/1.1/DTD/svg11.dtd"><svg width="100%" height="100%" viewBox="0 0 1520 489" version="1.1" xmlns="http://www.w3.org/2000/svg" xmlns:xlink="http://www.w3.org/1999/xlink" xml:space="preserve" xmlns:serif="http://www.serif.com/" style="fill-rule:evenodd;clip-rule:evenodd;stroke-linejoin:round;stroke-miterlimit:2;"><g><path d="M823.226,49.254l0,23.871l-334.701,-0l0,24.546l334.701,-0l0,13.021l-299.909,-0l-0,267.137l299.909,0l0,13.021l-334.701,-0l0,24.55l334.701,-0l0,23.871l-334.701,-0l0,49.254l-119.342,-0l-4.562,-5.729c-7.658,-9.621 -17.083,-17.225 -27.521,-22.604c-25.779,11.162 -52.829,17.516 -80.746,18.937c-2.171,4.533 -6.733,7.729 -12.1,7.729c-5.362,0 -9.912,-3.196 -12.1,-7.729c-27.9,-1.421 -54.929,-7.775 -80.712,-18.937c-10.45,5.379 -19.863,12.983 -27.517,22.604l-4.567,5.729l-119.358,-0l0,-488.525l119.358,0l4.567,5.729c7.654,9.634 17.083,17.221 27.55,22.621c25.833,-11.129 53.075,-17.396 80.608,-18.838c2.155,-4.599 6.755,-7.845 12.171,-7.845c5.434,-0 10.017,3.246 12.188,7.846c27.533,1.441 54.791,7.708 80.625,18.837c10.45,-5.4 19.879,-12.988 27.554,-22.621l4.562,-5.729l119.342,0l0,49.254l334.701,0Zm-590.134,-26.912c-21.65,1.095 -43.109,5.329 -63.696,12.745c6.3,1.563 12.812,2.413 19.458,2.413l110.834,-0c6.616,-0 13.145,-0.85 19.479,-2.413c-20.625,-7.416 -42.063,-11.65 -63.713,-12.745c-2.412,3.75 -6.408,6.354 -11.2,6.354c-4.775,-0 -8.783,-2.604 -11.162,-6.354Zm150.433,435.8l20.192,-0c-0,-0 54.429,-0.575 54.429,-73.805l-0,-280.154c-0,-73.246 -54.429,-73.804 -54.429,-73.804l-20.192,0c-21.65,23.925 -51.821,37.5 -83.837,37.5l-110.834,0c-32.029,0 -62.187,-13.575 -83.833,-37.5l-20.208,0c-0,0 -54.43,0.558 -54.43,73.804l0,280.154c0,73.23 54.43,73.805 54.43,73.805l20.208,-0c21.646,-23.925 51.804,-37.517 83.833,-37.517l110.834,-0c32.016,-0 62.187,13.592 83.837,37.517Zm105,-347.45l0,267.137l21.788,0l-0,-267.137l-21.788,-0Zm-233.087,355.47c21.645,-1.075 43.104,-5.312 63.729,-12.741c-6.334,-1.563 -12.863,-2.417 -19.479,-2.417l-110.834,0c-6.646,0 -13.158,0.854 -19.458,2.417c20.587,7.429 42.046,11.666 63.712,12.741c2.38,-3.716 6.371,-6.354 11.146,-6.354c4.775,0 8.767,2.638 11.184,6.354Z" style="fill:#232021;"/><path d="M523.082,49.254l918.883,0l3.471,5.834c9.967,16.733 41.425,62.812 66.804,74.737l6.858,3.229l0.038,222.413l-6.875,3.212c-25.383,11.946 -56.825,58.004 -66.792,74.759l-3.471,5.833l-918.916,-0l-0,-23.871l795.516,-0c13.559,-5.054 34.271,-13.354 56.98,-24.55l-852.496,0l-0,-13.021l877.162,0c40.279,-22.708 80.729,-53.541 95,-90.696l0,-85.796c-14.287,-37.137 -54.721,-67.954 -94.962,-90.645l-877.2,-0l-0,-13.021l852.529,-0c-22.725,-11.213 -43.438,-19.496 -57.013,-24.546l-795.516,-0l-0,-23.871Zm972.146,98.471c-28.784,-17.658 -56.875,-59.167 -66.7,-74.6l-74.584,-0c44.963,19.337 109.825,53.575 141.284,100.346l-0,-25.746Zm-66.667,267.675c9.829,-15.454 37.9,-56.963 66.704,-74.604l0,-25.796c-31.458,46.804 -96.337,81.042 -141.321,100.4l74.617,-0Z" style="fill:#232021;"/></g></svg>