<?xml version="1.0" encoding="UTF-8" standalone="no"?><!DOCTYPE svg PUBLIC "-//W3C//DTD SVG 1.1//EN" "http://www.w3.org/Graphics/SVG/1.1/DTD/svg11.dtd"><svg width="100%" height="100%" viewBox="0 0 472 118" version="1.1" xmlns="http://www.w3.org/2000/svg" xmlns:xlink="http://www.w3.org/1999/xlink" xml:space="preserve" xmlns:serif="http://www.serif.com/" style="fill-rule:evenodd;clip-rule:evenodd;stroke-linejoin:round;stroke-miterlimit:2;"><path d="M471.158,31.852l-1.646,-0.775c-6.091,-2.862 -13.641,-13.921 -16.033,-17.937l-0.833,-1.4l-335.317,-0l0,-11.821l-28.642,-0l-1.095,1.375c-1.842,2.312 -4.105,4.133 -6.613,5.429c-6.2,-2.671 -12.742,-4.175 -19.35,-4.521c-0.521,-1.104 -1.621,-1.883 -2.925,-1.883c-1.3,-0 -2.404,0.779 -2.921,1.883c-6.608,0.346 -13.146,1.85 -19.346,4.521c-2.512,-1.296 -4.775,-3.117 -6.612,-5.429l-1.096,-1.375l-28.646,-0l0,117.246l28.646,-0l1.096,-1.375c1.837,-2.309 4.096,-4.134 6.604,-5.425c6.188,2.679 12.675,4.204 19.371,4.545c0.525,1.088 1.617,1.855 2.904,1.855c1.288,-0 2.383,-0.767 2.904,-1.855c6.7,-0.341 13.192,-1.866 19.379,-4.545c2.505,1.291 4.767,3.116 6.605,5.425l1.095,1.375l28.642,-0l0,-11.821l335.325,-0l0.833,-1.4c2.392,-4.021 9.938,-15.075 16.03,-17.942l1.65,-0.771l-0.009,-53.379Zm-28.525,58.746l-316.954,-0l0,-64.113l316.963,0c9.658,5.446 19.362,12.842 22.791,21.755l0,20.591c-3.425,8.917 -13.133,16.317 -22.8,21.767m-325.304,-64.113l5.229,0l0,64.113l-5.229,-0l0,-64.113Zm348.1,8.888l0,6.179c-7.55,-11.225 -23.117,-19.442 -33.908,-24.083l17.9,-0c2.358,3.704 9.1,13.666 16.008,17.904m-42.391,-17.904c3.258,1.212 8.229,3.2 13.683,5.891l-319.392,0l0,-5.891l305.709,-0Zm-367.013,-12.188c0.571,0.9 1.533,1.525 2.679,1.525c1.15,0 2.109,-0.625 2.688,-1.525c5.196,0.263 10.341,1.279 15.291,3.059c-1.52,0.375 -3.087,0.579 -4.675,0.579l-26.6,-0c-1.595,-0 -3.158,-0.204 -4.67,-0.579c4.941,-1.78 10.091,-2.796 15.287,-3.059m5.363,106.517c-0.58,-0.892 -1.538,-1.525 -2.684,-1.525c-1.146,-0 -2.104,0.633 -2.675,1.525c-5.2,-0.258 -10.35,-1.275 -15.291,-3.058c1.512,-0.375 3.075,-0.58 4.67,-0.58l26.6,0c1.588,0 3.155,0.205 4.675,0.58c-4.95,1.783 -10.1,2.8 -15.295,3.058m30.741,-1.925c-5.196,-5.742 -12.437,-9.004 -20.121,-9.004l-26.6,-0c-7.687,-0 -14.925,3.262 -20.12,9.004l-4.85,-0c-0,-0 -13.063,-0.138 -13.063,-17.713l0,-67.237c0,-17.579 13.063,-17.713 13.063,-17.713l4.85,0c5.195,5.742 12.433,9 20.12,9l26.6,0c7.684,0 14.925,-3.258 20.121,-9l4.846,0c0,0 13.063,0.134 13.063,17.713l-0,67.237c-0,17.575 -13.063,17.713 -13.063,17.713l-4.846,-0Zm25.2,-16.15l319.384,-0c-5.45,2.687 -10.421,4.679 -13.675,5.892l-305.709,-0l0,-5.892Zm332.1,5.892l-17.908,-0c10.796,-4.646 26.367,-12.863 33.917,-24.096l-0,6.191c-6.913,4.234 -13.65,14.196 -16.009,17.905" style="fill:#232021;fill-rule:nonzero;"/></svg>