<?xml version="1.0" encoding="UTF-8" standalone="no"?><!DOCTYPE svg PUBLIC "-//W3C//DTD SVG 1.1//EN" "http://www.w3.org/Graphics/SVG/1.1/DTD/svg11.dtd"><svg width="100%" height="100%" viewBox="0 0 474 145" version="1.1" xmlns="http://www.w3.org/2000/svg" xmlns:xlink="http://www.w3.org/1999/xlink" xml:space="preserve" xmlns:serif="http://www.serif.com/" style="fill-rule:evenodd;clip-rule:evenodd;stroke-linejoin:round;stroke-miterlimit:2;"><path d="M64.148,0.152c-0.8,0.325 -1.175,1.246 -0.858,2.033c0.079,0.188 0.55,1.296 1.408,2.95c-9.525,0.333 -18.55,2.621 -26.679,6.533c7.783,-0.92 19.962,-0.241 31.596,2.071c0.2,0 0.35,-0.004 0.508,-0.008c0.612,0.825 1.275,1.662 1.979,2.512c-53.067,-12.395 -66.867,14.392 -66.867,14.392c4.659,-4.783 10.092,-8.192 15.842,-10.575c1.754,-0.475 3.5,-0.867 5.242,-1.217c-16.034,12.267 -26.421,31.546 -26.421,53.242c-0,21.696 10.387,40.975 26.421,53.238c-1.742,-0.35 -3.488,-0.742 -5.242,-1.217c-5.75,-2.379 -11.183,-5.792 -15.842,-10.575c0,-0 13.8,26.792 66.867,14.392c-0.704,0.85 -1.367,1.687 -1.979,2.516c-0.158,-0.004 -0.308,-0.008 -0.508,-0.008c-11.634,2.308 -23.813,2.987 -31.596,2.071c8.129,3.908 17.154,6.196 26.679,6.529c-0.858,1.658 -1.329,2.762 -1.408,2.95c-0.317,0.792 0.058,1.708 0.858,2.033c0.796,0.329 1.708,-0.054 2.033,-0.854c0.025,-0.054 12.554,-23.85 28.871,-28.333c4.846,-1.329 9.679,-2.675 14.879,-2.817c-8.475,9.088 -19.758,15.529 -32.491,17.833c-3.442,3.384 -4.938,6.509 -5.459,9.113c9.421,-0.7 18.3,-3.354 26.25,-7.563l8.938,-5.729c1.112,-0.833 2.191,-1.708 3.246,-2.612l344.504,-0l0.833,-1.4c2.396,-4.021 9.938,-15.075 16.033,-17.942l1.65,-0.771l0,-61.712l-1.65,-0.771c-6.095,-2.867 -13.637,-13.921 -16.033,-17.942l-0.833,-1.4l-344.504,0c-1.055,-0.904 -2.134,-1.779 -3.246,-2.612l-8.938,-5.729c-7.95,-4.205 -16.829,-6.859 -26.25,-7.563c0.521,2.608 2.017,5.729 5.459,9.113c12.733,2.304 24.016,8.745 32.491,17.837c-5.2,-0.146 -10.033,-1.492 -14.879,-2.821c-16.317,-4.479 -28.846,-28.275 -28.871,-28.333c-0.325,-0.796 -1.237,-1.183 -2.033,-0.854m52.2,117.171c1.35,-1.463 2.633,-2.988 3.85,-4.567c5.104,0.842 10.387,2.321 15.875,4.567l-19.725,-0Zm351.358,-17.905c-6.916,4.238 -13.654,14.196 -16.008,17.905l-17.913,-0c10.796,-4.642 26.371,-12.863 33.921,-24.092l0,6.187Zm-16.008,-72.575c2.354,3.709 9.092,13.671 16.008,17.905l0,6.187c-7.55,-11.229 -23.125,-19.446 -33.921,-24.092l17.913,0Zm-335.35,0l19.725,0c-5.488,2.246 -10.771,3.73 -15.875,4.567c-1.217,-1.579 -2.5,-3.1 -3.85,-4.567m27.312,0.009l0.009,-0.009l281.633,0c10.004,3.725 36.271,14.838 42.4,30.78l0,28.92c-6.129,15.946 -32.396,27.059 -42.4,30.78l-281.633,-0l-0.009,-0.009c-7.429,-3.662 -14.566,-6.087 -21.408,-7.387c7.433,-10.771 11.808,-23.792 11.808,-37.842c0,-14.05 -4.375,-27.071 -11.808,-37.842c6.842,-1.304 13.979,-3.729 21.408,-7.391m-64.77,-3.688c4.095,3.55 9.054,6.817 15.025,9.084c5.895,2.237 12.166,3.208 18.75,3.041c8.145,10.071 13.062,22.854 13.062,36.796c0,13.938 -4.917,26.725 -13.062,36.796c-6.584,-0.167 -12.855,0.8 -18.75,3.037c-5.971,2.267 -10.93,5.534 -15.025,9.084c-5.809,2.033 -17.921,5.566 -32.555,5.962c-22.216,-8.379 -38.104,-29.766 -38.104,-54.879c0,-25.117 15.888,-46.5 38.104,-54.879c14.634,0.392 26.746,3.925 32.555,5.958" style="fill:#030404;fill-rule:nonzero;"/></svg>