<?xml version="1.0" encoding="UTF-8" standalone="no"?><!DOCTYPE svg PUBLIC "-//W3C//DTD SVG 1.1//EN" "http://www.w3.org/Graphics/SVG/1.1/DTD/svg11.dtd"><svg width="100%" height="100%" viewBox="0 0 223 260" version="1.1" xmlns="http://www.w3.org/2000/svg" xmlns:xlink="http://www.w3.org/1999/xlink" xml:space="preserve" xmlns:serif="http://www.serif.com/" style="fill-rule:evenodd;clip-rule:evenodd;stroke-linejoin:round;stroke-miterlimit:2;"><g><path d="M3.259,85.198c0,0 9.296,46.875 6.25,89.584c0,-0 -13.021,13.02 1.042,34.112l-1.167,22.8l203.313,0l-1.171,-22.8c14.062,-21.092 1.042,-34.112 1.042,-34.112c-3.046,-42.709 6.25,-89.584 6.25,-89.584l-5.988,-4.425c1.3,-2.346 4.575,-16.787 4.575,-16.787l-3.967,-48.104c-11.887,4.904 -19.554,-13.08 -19.554,-13.08l-165.691,0c-0,0 -7.663,17.984 -19.555,13.08l-3.962,48.104c-0,-0 3.271,14.441 4.571,16.787l-5.988,4.425Z" style="fill:#fff;fill-rule:nonzero;"/><path d="M111.039,181.267c28.046,0 50.867,15.396 50.867,34.325c-0,18.93 -22.821,34.334 -50.867,34.334c-28.046,-0 -50.866,-15.404 -50.866,-34.334c-0,-18.929 22.82,-34.325 50.866,-34.325" style="fill:#fff;fill-rule:nonzero;"/><path d="M111.039,244.716c-24.75,-0 -45.658,-13.334 -45.658,-29.121c-0,-15.783 20.908,-29.121 45.658,-29.121c24.75,0 45.659,13.338 45.659,29.121c-0,15.787 -20.909,29.121 -45.659,29.121m0,10.416c30.975,0 56.075,-17.704 56.075,-39.537c0,-21.833 -25.1,-39.538 -56.075,-39.538c-30.971,0 -56.075,17.705 -56.075,39.538c0,21.833 25.104,39.537 56.075,39.537" style="fill:#dedfdf;fill-rule:nonzero;"/><path d="M12.484,37.204c-2.671,-6.458 -3.938,-20.158 -3.938,-20.158l0.096,-1.163l1.717,-0.533c4.033,-1.25 15.521,-6.275 15.521,-12.763l-0,-2.683l170.325,0l-0,2.683c-0,6.488 11.487,11.513 15.512,12.763l1.721,0.533l0.104,1.163c0,-0 -1.271,13.7 -3.941,20.158l-1.2,-17.308c-4.446,-1.634 -15.255,-6.388 -17.255,-14.617l-160.212,0c-2.004,8.229 -12.808,12.983 -17.254,14.617l-1.196,17.308Zm-6.021,180.288l0,0.008c0.229,-0 0.5,0.021 0.746,0.037c0.221,-3.05 0.446,-6.504 0.654,-10.287c-3.117,-4.867 -5.529,-10.342 -6.042,-16.121c-0.633,-7.183 1.775,-13.837 7.084,-19.808c-0,-1.054 -0.017,-2.129 -0.025,-3.196c-0,-0 -3.779,-70.542 -7.246,-81.804l-0.45,-1.45l1.292,-0.796c0.054,-0.038 3.066,-1.946 6.02,-5.104c0,-0 3.109,-2.779 4.263,-6.129c1.275,-2.742 1.912,-5.859 1.137,-9.213c-0.125,-0.296 -1.583,-3.717 -3.058,-8.117l-0.696,7.813c0.729,2.158 1.359,4.467 1.946,6.825c-0.825,1.675 -2.371,4.325 -4.283,5.542c-0.817,-3.955 -1.75,-7.759 -2.929,-11.159l-0.196,-0.55l3.379,-37.721c-0.042,5.642 3.8,17.888 3.8,17.888c1.275,7.712 5.596,17.871 5.737,18.262c1.513,6.405 -0.695,11.913 -3.7,16.113c4.513,25.379 0.121,115.921 -0.454,126.45c-2.087,-2.667 -3.991,-6.958 -5.021,-9.525c0.213,-5.483 0.359,-11.408 0.434,-17.55c-2.459,4.033 -3.534,8.346 -3.134,12.879c0.455,5.238 2.75,10.296 5.738,14.817c0.146,0.225 0.283,0.421 0.417,0.616c0.404,0.596 0.82,1.18 1.241,1.755c0.1,0.125 0.146,0.191 0.146,0.191l0,0.009c6.575,8.812 15.1,15.045 15.742,15.508c3.237,1.704 6.441,3.692 9.55,5.779l0.046,0l0.691,0.488c2.167,1.479 4.263,3.004 6.279,4.533l0.5,0.35l-24.166,-0c-0.338,2.175 -0.321,8.579 10.754,10.912c-0,0 1.587,5.538 18.017,9.396c16.429,3.854 3.379,-16.362 -1.621,-20.308l0.05,-0.042l-6.754,-5.329l6.337,0c-1.433,-4.25 -2.179,-8.046 -2.412,-11.404c-2.25,3.071 -7.059,7.687 -14.267,4.925c1.637,0.462 8.337,1.442 14.367,-11.192l0.02,0.059c1.205,-10.021 6.9,-14.571 6.9,-14.571c-5.912,11.625 -4.545,21.946 -2.62,28.179c0.033,0.046 1.229,1.712 3.654,1.75c-1.467,-3.696 -2.296,-7.579 -2.296,-11.604c-0,-23.417 26.475,-42.467 59.008,-42.467c32.538,0 59.009,19.05 59.009,42.467c-0,4.025 -0.838,7.908 -2.296,11.604c2.421,-0.038 3.621,-1.704 3.658,-1.75c1.921,-6.233 3.288,-16.554 -2.625,-28.179c0,-0 5.7,4.55 6.9,14.571l0.021,-0.059c6.021,12.634 12.729,11.654 14.371,11.192c-7.209,2.762 -12.021,-1.854 -14.275,-4.925c-0.229,3.358 -0.975,7.154 -2.409,11.404l6.334,0l-6.804,5.371c-4.992,3.946 -18.042,24.162 -1.617,20.308c16.429,-3.858 18.017,-9.396 18.017,-9.396c11.083,-2.333 11.095,-8.737 10.758,-10.912l-24.067,-0l0.488,-0.35c2.025,-1.529 4.121,-3.054 6.291,-4.533l0.688,-0.488l0.05,0c3.104,-2.087 6.308,-4.075 9.55,-5.779c0.637,-0.463 9.162,-6.696 15.729,-15.508l0,-0.009c0,0 0.058,-0.066 0.146,-0.191c0.425,-0.575 0.846,-1.159 1.246,-1.755c0.137,-0.195 0.275,-0.391 0.425,-0.616c2.979,-4.521 5.275,-9.579 5.737,-14.817c0.392,-4.533 -0.675,-8.846 -3.141,-12.879c0.07,6.142 0.22,12.067 0.437,17.55c-1.033,2.567 -2.937,6.858 -5.025,9.525c-0.571,-10.529 -4.962,-101.071 -0.45,-126.45c-3,-4.2 -5.208,-9.708 -3.7,-16.113c0.138,-0.391 4.458,-10.55 5.733,-18.262c0,-0 3.842,-12.246 3.8,-17.888l3.384,37.721l-0.192,0.55c-1.179,3.4 -2.117,7.204 -2.933,11.159c-1.917,-1.217 -3.454,-3.867 -4.284,-5.542c0.588,-2.358 1.217,-4.667 1.946,-6.825l-0.704,-7.813c-1.471,4.4 -2.921,7.821 -3.05,8.117c-0.783,3.354 -0.137,6.471 1.138,9.213c1.154,3.35 4.258,6.129 4.258,6.129c2.962,3.158 5.962,5.066 6.029,5.104l1.288,0.796l-0.45,1.45c-3.467,11.262 -7.25,81.804 -7.25,81.804c-0,1.067 -0.017,2.142 -0.017,3.196c5.304,5.971 7.708,12.625 7.075,19.808c-0.513,5.779 -2.921,11.254 -6.042,16.121c0.213,3.783 0.438,7.237 0.65,10.287c0.254,-0.016 0.525,-0.037 0.759,-0.037l-0.009,-0.008c4.079,-0.33 7.654,1.929 5.917,4.783c-1.729,2.85 -4.688,3.162 -4.688,3.162c0,0 1.113,-0.716 2.038,-2.35c0.462,-0.816 0.104,-1.2 -0.371,-1.379c-0.35,-0.058 -0.683,-0.116 -1.05,-0.154l-0.008,0c-0.754,-0.067 -1.534,-0.083 -2.292,-0.075c0.488,6.333 0.879,10.167 0.9,10.375l0.321,2.971l-10.696,-0c-4.983,19.008 -39.679,25.271 -39.679,25.271c-6.358,-5.613 -13.425,-3.934 -13.425,-3.934c5.65,-3.004 7.067,-9.537 7.067,-9.537l-7.842,1.862c-3.354,0.838 -7.817,2.65 -10.471,6.646l-21.617,2.471l0.18,-0.071c-2.9,0.313 -5.846,0.529 -8.859,0.529c-3.016,0 -5.958,-0.216 -8.858,-0.529l0.175,0.071l-21.613,-2.471c-2.687,-4.033 -7.212,-5.85 -10.57,-6.675l-0,0.029l-7.838,-1.862c0,-0 1.408,6.533 7.063,9.537c-0,0 -7.071,-1.679 -13.425,3.934c-0,-0 -34.696,-6.263 -39.684,-25.271l-10.587,-0l0.312,-2.971c0.025,-0.208 0.421,-4.042 0.909,-10.375c-0.767,-0.008 -1.546,0.008 -2.3,0.075l-0.009,0c-0.366,0.038 -0.704,0.096 -1.046,0.154c-0.475,0.179 -0.837,0.563 -0.375,1.379c0.921,1.634 2.042,2.35 2.042,2.35c0,0 -2.954,-0.312 -4.692,-3.162c-1.729,-2.854 1.838,-5.113 5.917,-4.783m203.954,-83.117c1.471,-15.504 3.434,-38.904 5.896,-47.813c-0.879,-0.629 -2.129,-1.595 -3.5,-2.854c-2.146,14.525 -2.533,38.404 -2.396,50.667m-5.883,84.612c1.683,-0.454 3.321,-0.75 4.933,-0.95c-0.091,-1.27 -0.191,-2.641 -0.279,-4.058c-1.558,1.825 -3.142,3.517 -4.654,5.008m-13.746,10.467l19.633,0c-0.175,-1.817 -0.408,-4.404 -0.654,-7.575c-5.875,0.704 -12.508,3.683 -18.979,7.575m-27.204,5.371c-2.117,2.987 -4.688,5.767 -7.683,8.296c5.575,0.175 10.116,-4.975 12.445,-8.296l-4.762,-0Zm-105.683,-19.229c-0,4.908 1.425,9.579 3.983,13.866c0.512,0.855 1.083,1.684 1.7,2.505c0.062,0.091 0.121,0.187 0.187,0.283c0.667,0.875 1.384,1.737 2.138,2.575c9.383,10.404 26.079,17.375 45.133,17.375c19.054,-0 35.75,-6.971 45.129,-17.375c0.763,-0.838 1.475,-1.7 2.138,-2.575c0.075,-0.096 0.129,-0.192 0.196,-0.283c0.608,-0.821 1.179,-1.65 1.691,-2.505c2.555,-4.283 3.988,-8.958 3.988,-13.866c-0,-20.179 -23.838,-36.6 -53.142,-36.6c-29.304,-0 -53.141,16.421 -53.141,36.6m8.295,27.529c-3.004,-2.529 -5.575,-5.313 -7.7,-8.3l-4.858,-0c2.342,3.337 6.929,8.542 12.558,8.3m-53.583,-25.088c1.613,0.2 3.254,0.496 4.942,0.95c-1.521,-1.491 -3.1,-3.183 -4.659,-5.008c-0.087,1.417 -0.183,2.788 -0.283,4.058m-0.95,11.417l19.629,0c-6.466,-3.892 -13.104,-6.871 -18.971,-7.575c-0.254,3.171 -0.487,5.758 -0.658,7.575m0.008,-95.079c0.138,-12.263 -0.258,-36.142 -2.4,-50.667c-1.37,1.259 -2.62,2.225 -3.5,2.854c2.459,8.909 4.417,32.309 5.9,47.813" style="fill:#030404;fill-rule:nonzero;"/></g></svg>